<svg width="200" height="80" viewBox="0 0 200 80" xmlns="http://www.w3.org/2000/svg">
  <!-- Jevah Text -->
  <text x="100" y="35" font-family="Arial, sans-serif" font-size="32" font-weight="bold" text-anchor="middle" fill="white">
    <tspan x="100" dy="0">Jevah</tspan>
  </text>
  
  <!-- Sun symbol above 'a' -->
  <g transform="translate(135, 15)">
    <!-- Sun rays -->
    <path d="M0,-8 L2,-6 L4,-8 L6,-6 L8,-8 L6,-4 L8,-2 L6,0 L8,2 L6,4 L8,6 L6,8 L4,6 L2,8 L0,6 L-2,8 L-4,6 L-6,8 L-8,6 L-6,4 L-8,2 L-6,0 L-8,-2 L-6,-4 L-8,-6 L-6,-8 L-4,-6 L-2,-8 Z" fill="#FF6B35"/>
    <!-- Center circle -->
    <circle cx="0" cy="0" r="3" fill="#FF6B35"/>
  </g>
  
  <!-- Horizontal line above 'a' -->
  <line x1="130" y1="20" x2="140" y2="20" stroke="#FF6B35" stroke-width="2"/>
  
  <!-- Smile arc beneath text -->
  <path d="M 85 45 Q 100 55 115 45" stroke="#FF6B35" stroke-width="3" fill="none" stroke-linecap="round"/>
</svg>
